<svg width="46" height="66" fill="none" xmlns="http://www.w3.org/2000/svg"><path d="M39.776 43.352l-2.741-.587-.01-.004-6.576-1.406c.044-.322.068-.647.07-.972v-3.054a13.954 13.954 0 006.442-11.75V23.09h1.503a.955.955 0 00.957-.957v-3.282a.955.955 0 00-.957-.957h-.691A14.74 14.74 0 0026.418 3.727V1.555a.96.96 0 00-.957-.957h-4.922a.957.957 0 00-.957.957v2.172A14.74 14.74 0 008.226 17.895h-.69a.955.955 0 00-.957.957v3.282a.956.956 0 00.957.957h1.502v2.488a13.954 13.954 0 006.442 11.75v3.054c.002.325.026.65.07.972L8.974 42.76h-.007l-2.743.587a7.556 7.556 0 00-5.953 7.354v13.743a.957.957 0 00.958.957H44.77a.957.957 0 00.957-.957V50.702a7.555 7.555 0 00-5.952-7.35zM35.86 17.895h-4.52V12.29a.957.957 0 00-1.914 0v5.605h-3.007V5.687a12.84 12.84 0 019.44 12.208zM21.496 2.512h3.008v15.383h-3.008V2.512zm-1.914 3.176v12.207h-3.008V12.29a.957.957 0 10-1.914 0v5.605h-4.52a12.839 12.839 0 019.442-12.207zM8.492 19.809h29.015v1.368H8.493v-1.368zm2.462 5.77V23.09h24.093v2.488a12.048 12.048 0 01-24.095 0h.002zM23 39.535c1.93.002 3.839-.398 5.605-1.176v2.024a5.606 5.606 0 01-11.21 0v-2.024A13.889 13.889 0 0023 39.535zM2.186 50.702a5.633 5.633 0 014.439-5.479l1.593-.341v18.606H2.186V50.702zm7.946-6.23l5.906-1.264a7.532 7.532 0 006.007 4.627v15.653H10.132V44.472zm13.825 19.016V47.834a7.531 7.531 0 006.006-4.626l5.907 1.264v19.016H23.957zm19.857 0h-6.032V44.883l1.593.34a5.633 5.633 0 014.439 5.48v12.785z" fill="#2D2D2D"/><path d="M41.49 53.813a.955.955 0 00-.957.957v3.42a.957.957 0 101.914 0v-3.42a.957.957 0 00-.957-.957zm-22.941-2.176h-4.922a.957.957 0 100 1.914h4.922a.958.958 0 000-1.914z" fill="#2D2D2D"/></svg>